<svg id="Layer_1" xmlns="http://www.w3.org/2000/svg" viewBox="0 0 210 65"><style>.st0{fill:#71bfff}.st1{fill:#bbe7ff}.st2{fill:#0068ff}.st3{font-family:&apos;MyriadPro-Regular&apos;}.st4{font-size:34.5764px}</style><switch><g><path class="st0" d="M23.9 5l42.8 2.8L46.8 56z"/><path class="st1" d="M66.7 7.8L44 58.8c.5-.1 1.1.3 1.1.9 1.2-.4 2.5-.1 3.6.5.8.5 1.5 1.2 2.2 1.9.3-.2.7-.2 1 0l.1.1.2-.1c.7-1.2 1.3-2.4 2-3.6 1.2-2 2.3-4.1 3.6-6 .2-.3.4-.7.6-1v-.1s0-.1.1-.1c.1-.1.1-.2.2-.3.2-.3.3-.5.5-.8.8-1.2 1.5-2.5 2.3-3.7.7-1.1 1.5-2.2 2.4-3.2.7-.8 1.5-1.6 2.6-1.8 1.6-.2 2.3 1.7 2.8 2.9.3.6.4 1.3.7 1.9.3.8.7 1.6 1 2.3.2.4.3.7.5 1.1 0 .1.1.2.2.3 0 0 .1.1.1.2 0 0 .1.1.1.2s.1.2.1.2l.6.9c.1.2.2.3.4.4l.1.1.1.1c.2.2.5.4.8.6l.2.1c.1 0 .2.1.2.1.2.1.3.1.5.2.1 0 .1 0 0 0h.1l7.7-3-16-42.3z"/><path class="st2" d="M51.4 62.2h.7c.1 0 .1 0 .2-.1L23.9 5 9.4 48.1l7.8 2.6h.1c-.1 0 0 0 0 0 .2-.1.3-.1.5-.2.1 0 .2-.1.2-.1l.2-.1c.3-.2.5-.4.8-.7l.1-.1.1-.1c.1-.1.2-.3.3-.5.2-.3.4-.6.6-1 0-.1.1-.2.1-.2s.1-.1.1-.2l.1-.2c0-.1.1-.2.1-.3.2-.4.3-.7.5-1.1.3-.8.6-1.6 1-2.4.2-.6.4-1.3.6-1.9.4-1.2 1.1-3.1 2.7-3 1.1.1 1.9 1 2.7 1.7.9 1 1.8 2 2.5 3.1.9 1.2 1.7 2.4 2.5 3.6.2.3.3.5.5.8.1.1.1.2.2.3 0 0 0 .1.1.1v.1c.2.3.4.7.7 1 1.4 1.9 2.6 3.9 3.9 5.9.7 1.2 1.4 2.3 2.1 3.5l10.6 3.6c.1-.1.2-.1.3-.1z"/><text transform="translate(94.19 43.95)" class="st0 st3 st4">Majesti</text></g></switch></svg>