<svg id="Layer_1" xmlns="http://www.w3.org/2000/svg" viewBox="0 0 1000 793"><style>.st0{fill:#71bfff}.st1{fill:#bbe7ff}.st2{fill:#0068ff}</style><switch><g><path class="st0" d="M204.7 17l567.9 37.5-264.1 639.8z"/><path class="st1" d="M772.6 54.5l-301 676.3c7.1-.9 15 4.5 15.3 11.8 15.6-4.8 33.8-1.6 47.6 6.6 11.2 6.7 20.3 16 29 25.6 3.8-2.2 8.9-2.1 12.6 0 .6.3 1.2.7 1.7 1.2l2.9-1.1c8.7-16 17.6-31.9 26.6-47.7 15.4-26.9 30.9-54.2 48.1-80.1 2.9-4.4 5.7-8.8 8.4-13.3.1-.2.3-.4.4-.6.2-.4.4-.6.4-.7.2-.4.4-.7.7-1.1l2.7-4.5c2.1-3.4 4.1-6.8 6.2-10.3 10-16.5 20.1-33.1 30.8-49.2 9.8-14.8 20.1-29.5 32-42.8 9-10 20.3-21.7 34.4-23.7 20.8-3 30.7 22.7 37 38.1 3.3 8.2 5.9 16.8 9.5 24.9 4.6 10.4 9.2 20.8 13.9 31.1 2.2 4.9 4.5 9.8 6.9 14.6.7 1.3 1.3 2.6 2 3.9.2.4 1 1.8 1.2 2.3.3.5 1.1 1.9 1.3 2.3.6 1.1 1.2 2.1 1.9 3.2 2.6 4.3 5.3 8.4 8.3 12.4 1.5 2 3.1 3.9 4.8 5.8.2.3 1.2 1.3 1.6 1.7l1.6 1.6c3.2 3 6.7 5.8 10.5 8.2.1 0 2.3 1.3 2.8 1.5 1 .5 2.1 1 3.1 1.5 2.1 1 4.3 1.8 6.6 2.6.8.3 1.6.5.4.1.6.2 1.2.3 1.8.5.2 0 .3.1.5.1L989 618.2 772.6 54.5z"/><path class="st2" d="M568.7 777.1c.7-.1 1.3-.2 2-.2.5 0 3.8-.3 3.4-.2.8-.1 1.6-.3 2.4-.5.9-.2 1.8-.4 2.7-.7L204.7 17 10.9 588.8l103.7 35.1c.2 0 .3-.1.5-.1.6-.2 1.2-.3 1.8-.5-1.3.4-.4.2.3-.1 2.2-.8 4.4-1.8 6.5-2.8 1-.5 2-1.1 3-1.6.5-.3 2.6-1.6 2.7-1.6 3.6-2.6 7-5.5 10.1-8.6.2-.2 1.2-1.2 1.6-1.7.4-.5 1.3-1.5 1.5-1.8 1.6-1.9 3.1-3.9 4.5-6 2.8-4.1 5.4-8.3 7.8-12.7.6-1.1 1.2-2.2 1.7-3.2.2-.4 1-1.9 1.2-2.4.3-.5 1-2 1.1-2.4.6-1.3 1.2-2.7 1.8-4 2.2-4.9 4.3-9.9 6.3-14.9 4.3-10.5 8.5-21.1 12.6-31.6 3.2-8.2 5.5-16.9 8.5-25.2 5.7-15.6 14.6-41.7 35.5-39.5 14.1 1.5 25.9 12.7 35.3 22.4 12.4 12.7 23.3 27 33.7 41.4 11.3 15.7 22.1 31.8 32.7 47.9 2.2 3.3 4.4 6.7 6.6 10 1 1.5 1.9 2.9 2.9 4.4.2.4.5.7.7 1.1.1.1.2.3.4.7.1.2.3.4.4.6 2.9 4.4 5.8 8.7 8.9 12.9 18.3 25.1 34.8 51.8 51.3 78.1 9.7 15.4 19.1 31 28.5 46.6l140.4 47.5c1.2-.1 2.2 0 3.3.3z"/></g></switch></svg>
